<svg enable-background="new 0 0 80.8 80.8" height="80.8" viewBox="0 0 80.8 80.8" width="80.8" xmlns="http://www.w3.org/2000/svg"><path d="m4 .5s-3.5 0-3.5 3.5v72.8s0 3.5 3.5 3.5h72.8s3.5 0 3.5-3.5v-72.8s0-3.5-3.5-3.5z" fill="none" stroke="#fff" stroke-miterlimit="10"/><g fill="#fff"><path d="m35.1 18h-22.4c-1.2 0-2.2-1-2.2-2.2s1-2.2 2.2-2.2h22.4c1.2 0 2.2 1 2.2 2.2s-1 2.2-2.2 2.2z"/><path d="m35.1 32.1h-17.4-.4c-1.3 0-2.4-1.1-2.4-2.4s1.1-2.4 2.4-2.4h.4 10.6c1.2 0 2.2-1 2.2-2.2s-1-2.2-2.2-2.2h-15.7c-1.2 0-2.2 1-2.2 2.2v9.3c0 1.2 1 2.2 2.2 2.2h22.4c1.2 0 2.2-1 2.2-2.2s-.9-2.3-2.1-2.3z"/><path d="m66.4 44.4h-18.8c-1.2 0-2.2 1-2.2 2.2v2.2 16.4c0 1.2 1 2.2 2.2 2.2s2.2-1 2.2-2.2v-16.4h14.4v16.3c0 1.2 1 2.2 2.2 2.2s2.2-1 2.2-2.2v-16.4-2.2c0-1.1-1-2.1-2.2-2.1z"/><path d="m35.1 48.8h-22.4c-1.2 0-2.2-1-2.2-2.2s1-2.2 2.2-2.2h22.4c1.2 0 2.2 1 2.2 2.2s-1 2.2-2.2 2.2z"/><path d="m35.1 62.9h-17.4-.4c-1.3 0-2.4-1.1-2.4-2.4s1.1-2.4 2.4-2.4h.4 10.6c1.2 0 2.2-1 2.2-2.2s-1-2.2-2.2-2.2h-15.7c-1.2 0-2.2 1-2.2 2.2v9.3c0 1.2 1 2.2 2.2 2.2h22.4c1.2 0 2.2-1 2.2-2.2.1-1.3-.9-2.3-2.1-2.3z"/><path d="m68.2 32.1h-22.4c-1.2 0-2.2 1-2.2 2.2s1 2.2 2.2 2.2h22.4c1.2 0 2.2-1 2.2-2.2s-1-2.2-2.2-2.2z"/><path d="m68.2 18h-17.4-.4c-1.3 0-2.4 1.1-2.4 2.4s1.1 2.4 2.4 2.4h.4 10.6c1.2 0 2.2 1 2.2 2.2s-1 2.2-2.2 2.2h-15.7c-1.2 0-2.2-1-2.2-2.2v-9.3c0-1.2 1-2.2 2.2-2.2h22.4c1.2 0 2.2 1 2.2 2.2.1 1.3-.9 2.3-2.1 2.3z"/></g></svg>