<svg fill="none" height="20" viewBox="0 0 20 20" width="20" xmlns="http://www.w3.org/2000/svg" xmlns:xlink="http://www.w3.org/1999/xlink"><clipPath id="a"><path d="m0 0h20v20h-20z"/></clipPath><g clip-path="url(#a)"><circle cx="10" cy="10" fill="#fff" r="10"/><g fill="#25215b"><path d="m6.16967 8.38379h-3.21215v1.25807h3.21215z"/><path d="m5.8291 6.23301.59882 1.05511 1.18696-.74045v5.25513h1.50133v-6.96979h-1.19703z"/><path d="m15.3562 9.93553c0-.80119-.5478-1.41007-1.3698-1.73481.7002-.3043 1.1974-.81156 1.1974-1.5926 0-1.19733-1.238-1.89718-2.6279-1.89718s-2.61747.66963-2.61747 1.89718c0 .79141.49717 1.29867 1.18697 1.5926-.8015.30459-1.36978.91318-1.36978 1.73481 0 1.25807 1.25808 1.98877 2.79998 1.98877s2.8-.7206 2.8-1.98877zm-2.8-3.96681c.6696 0 1.1363.35525 1.1363.832 0 .51733-.5884.84207-1.1363.88266-.5478-.04059-1.1259-.34518-1.1259-.88266 0-.47675.4566-.832 1.1259-.832zm0 4.69748c-.7407 0-1.2782-.3653-1.2782-.89274 0-.52741.6797-.89304 1.2782-.91319.5985.02015 1.2886.36533 1.2886.91319 0 .54784-.5479.89274-1.2886.89274z"/><path d="m6.92058 12.5864-1.09807 2.7734h.77511l.16148-.4036h1.09808l.16148.4036h.77511l-1.09807-2.7734zm.05245 1.8288.33511-.8519.33511.8519z"/><path d="m11.4722 14.2252-1.2071-1.6388h-.69039v2.7734h.69039v-1.6392l1.2071 1.6392h.6904v-2.7734h-.6904z"/><path d="m14.3447 13.6725c-.4119-.0886-.5449-.1452-.5449-.3147 0-.1374.125-.2423.3472-.2423.2584 0 .5369.1007.7912.2948l.3511-.4925c-.2949-.2462-.6581-.3792-1.1224-.3792-.6338 0-1.0616.3552-1.0616.888 0 .5327.44.7188 1.0334.8518.4039.0969.5331.1331.5331.2987 0 .1493-.1334.2545-.3917.2545-.339 0-.6418-.1292-.9123-.3511l-.3876.4643c.3351.3025.7831.464 1.2756.464.6862 0 1.1102-.347 1.1102-.9043 0-.5206-.3997-.6984-1.0213-.8317z"/></g><path d="m10 0c-2.5197 0-4.92711.940444-6.77837 2.6477-2.04741 1.8883-3.22163 4.5683-3.22163 7.3523 0 5.5141 4.48593 10 10 10 5.5141 0 10-4.4859 10-10 0-5.51407-4.4859-10-10-10zm-8.0797 10c0-1.904.65866-3.65393 1.76029-5.03467l11.35411 11.35407c-1.3811 1.1016-3.1307 1.7606-5.0347 1.7606-4.46222 0-8.0797-3.6175-8.0797-8.0797zm14.3437 5.1034-11.36741-11.3671c1.39141-1.13511 3.16771-1.816 5.10341-1.816 4.4622 0 8.0797 3.61748 8.0797 8.0797 0 1.9357-.6809 3.712-1.816 5.1034z" fill="#ed1a3a"/></g></svg>