<svg enable-background="new 0 0 79.2 80" height="80" viewBox="0 0 79.2 80" width="79.2" xmlns="http://www.w3.org/2000/svg"><g fill="#fff"><path d="m0 0v.4h79.2v-.4z"/><path d="m2.8 70.3h1.7l-.8-2.1zm-1.7 2 2-5.1h.9l2 5.1h-.8l-.5-1.3h-2.2l-.5 1.3z"/><path d="m7.3 72.3v-5h.7l2.8 3.7v-3.7h.8v5h-.7l-2.8-3.7v3.7z"/><path d="m13.5 72.3v-5h3.5v.7h-2.7v1.3h2.2v.8h-2.2v1.5h2.8v.7z"/><path d="m18.9 69.3h2.9v.8h-2.9zm-.5-2h3.8v.7h-3.8zm-.1 4.3h4.1v.8h-4.1z"/><path d="m24.9 70.3h1.7l-.8-2.1zm-1.6 2 2-5.1h.9l2 5.1h-.8l-.5-1.3h-2.3l-.5 1.3z"/><path d="m30.2 69.8h1.2c.3 0 .5-.1.6-.3.2-.2.3-.4.3-.6 0-.3-.1-.5-.3-.6-.2-.2-.4-.3-.6-.3h-1.2zm-.8 2.5v-5.1h2c.5 0 .9.2 1.2.5s.5.7.5 1.2-.2.8-.5 1.2c-.3.3-.7.5-1.2.5h-1.2v1.8z"/><path d="m35.6 72.3v-4.3h-1.6v-.7h3.9v.7h-1.6v4.3z"/><path d="m39.2 72.3v-5h.8v2.1h2.5v-2.1h.7v5h-.7v-2.2h-2.5v2.2z"/><path d="m46.1 72.3v-4.3h-1.6v-.7h3.9v.7h-1.5v4.3z"/><path d="m49.7 72.3v-5h.8v2.1h2.5v-2.1h.8v5h-.8v-2.2h-2.5v2.2z"/><path d="m58.3 70.3h1.7l-.8-2.1zm-1.6 2 2-5.1h.9l2 5.1h-.8l-.5-1.3h-2.2l-.5 1.3z"/><path d="m63.6 69.8h1.2c.3 0 .5-.1.6-.3.2-.2.3-.4.3-.6 0-.3-.1-.5-.3-.6-.2-.2-.4-.3-.6-.3h-1.2zm-.8 2.5v-5.1h2c.5 0 .9.2 1.2.5s.5.7.5 1.2-.2.8-.5 1.2c-.3.3-.7.5-1.2.5h-1.2v1.8z"/><path d="m67.2 72.3 1.8-2.6-1.6-2.4h.9l1.2 1.8 1.3-1.8h.9l-1.7 2.4 1.9 2.6h-1l-1.4-2-1.3 2z"/><path d="m73.1 72.3v-5h.8v2.1h2.5v-2.1h.8v5h-.8v-2.2h-2.5v2.2z"/><path d="m1.3 17.1v-8.3h5.9v1.2h-4.6v2.2h3.6v1.2h-3.6v2.5h4.7v1.2z"/><path d="m9 17.1v-8.3h6.8v8.3h-1.3v-7.1h-4.1v7.1z"/><path d="m18.2 8.8h1.3v8.3h-1.3z"/><path d="m23.4 17.1v-7.1h-2.5v-1.2h6.3v1.2h-2.5v7.1z"/><path d="m30 13h2c.4 0 .8-.1 1.1-.4s.4-.6.4-1.1c0-.4-.1-.8-.4-1.1s-.6-.4-1.1-.4h-2zm-1.3 4.1v-8.3h3.3c.8 0 1.5.3 2 .8s.8 1.2.8 1.9c0 .8-.3 1.4-.8 1.9s-1.2.8-2 .8h-2v3z"/><path d="m38.2 10.8c-.6.6-.9 1.3-.9 2.2s.3 1.6.9 2.2 1.3.9 2.2.9 1.6-.3 2.2-.9.9-1.3.9-2.2-.3-1.6-.9-2.2-1.3-.9-2.2-.9-1.6.3-2.2.9zm-.9 5.2c-.8-.8-1.3-1.8-1.3-3s.4-2.2 1.3-3c.8-.8 1.9-1.2 3.1-1.2s2.3.4 3.1 1.2 1.3 1.8 1.3 3-.4 2.2-1.3 3c-.8.8-1.9 1.2-3.1 1.2-1.2.1-2.3-.4-3.1-1.2z"/><path d="m46.7 17.1v-8.3h6.7v8.3h-1.3v-7.1h-4.1v7.1z"/><path d="m55.8 17.1v-8.3h1.3v3.5h4.1v-3.5h1.3v8.3h-1.3v-3.6h-4.1v3.6z"/><path d="m1.3 31.5v-8.4h5.9v1.3h-4.6v2.1h3.6v1.3h-3.6v2.4h4.7v1.3z"/><path d="m9 31.5v-8.4h6.8v8.4h-1.3v-7.1h-4.1v7.1z"/><path d="m19.8 25.1c-.6.6-.9 1.3-.9 2.2s.3 1.6.9 2.2 1.3.9 2.2.9 1.6-.3 2.2-.9.9-1.3.9-2.2-.3-1.6-.9-2.2-1.3-.9-2.2-.9c-.8 0-1.6.3-2.2.9zm-.9 5.2c-.8-.8-1.3-1.8-1.3-3s.4-2.2 1.3-3c.8-.8 1.9-1.2 3.1-1.2s2.3.4 3.1 1.2 1.3 1.8 1.3 3-.4 2.2-1.3 3c-.8.8-1.9 1.2-3.1 1.2-1.2.1-2.3-.3-3.1-1.2z"/><path d="m28.3 31.5v-8.4h6.7v8.4h-1.3v-7.1h-4.1v7.1z"/><path d="m39 31.5v-7.1h-2.5v-1.3h6.3v1.3h-2.5v7.1z"/><path d="m44.2 31.5v-8.4h5.9v1.3h-4.6v2.1h3.7v1.3h-3.7v2.4h4.7v1.3z"/><path d="m52 23.1h1.3v8.4h-1.3z"/><path d="m57.3 28.1h2.7l-1.4-3.5zm-2.7 3.4 3.3-8.3h1.4l3.3 8.3h-1.4l-.8-2.1h-3.7l-.8 2.1z"/><path d="m63.5 31.5v-1.1l2.6-3.3-2.6-2.9v-1.1h6.1v1.3h-4.4l2.5 2.7-2.5 3.1h4.4v1.3z"/><path d="m1.3 45.8v-8.4h1.3v4.1l3.8-4.1h1.6l-3.2 3.5 3.5 4.9h-1.6l-2.8-4-1.3 1.5v2.5z"/><path d="m11.1 42.4h2.7l-1.4-3.5zm-2.7 3.4 3.3-8.3h1.4l3.3 8.3h-1.4l-.8-2.1h-3.6l-.8 2.1z"/><path d="m17.8 37.4h1.3v8.4h-1.3z"/><path d="m23.8 45.8v-8.4h5.9v1.3h-4.6v2.1h3.6v1.3h-3.6v2.4h4.7v1.3z"/><path d="m30.4 45.8 3.4-8.4h1.4l3.4 8.4h-1.4l-2.7-6.8-2.7 6.8z"/><path d="m39.9 45.8v-8.4h5.9v1.3h-4.6v2.1h3.6v1.3h-3.6v2.4h4.7v1.3z"/><path d="m47.6 45.8v-8.4h5.4v1.3h-4.1v7.1z"/><path d="m53.3 45.8 3-4.4-2.7-4h1.5l2 3.1 2.1-3.1h1.5l-2.7 4 3 4.4h-1.6l-2.3-3.4-2.2 3.4z"/><path d="m63.7 39.4c-.6.6-.9 1.3-.9 2.2s.3 1.6.9 2.2 1.3.9 2.2.9 1.6-.3 2.2-.9.9-1.3.9-2.2-.3-1.6-.9-2.2-1.3-.9-2.2-.9c-.8 0-1.6.3-2.2.9zm-.9 5.2c-.8-.8-1.3-1.8-1.3-3s.4-2.2 1.3-3c.8-.8 1.9-1.2 3.1-1.2s2.3.4 3.1 1.2 1.3 1.8 1.3 3-.4 2.2-1.3 3c-.8.8-1.9 1.2-3.1 1.2-1.2.1-2.3-.3-3.1-1.2z"/><path d="m74 45.8v-3l-3.2-5.4h1.5l2.3 4.1 2.4-4.1h1.5l-3.2 5.4v3z"/><path d="m1.1 60.1v-8.4h7.4v8.4h-2.3v-6.2h-2.9v6.2z"/><path d="m13 56.4h1.6l-.8-2.4zm-3.6 3.7 3.2-8.3h2.5l3.2 8.3h-2.4l-.6-1.8h-2.7l-.6 1.8z"/><path d="m19.1 51.7h2.3v8.4h-2.3z"/><path d="m23.3 60.1v-8.4h5.8v2.2h-3.5v6.2z"/><path d="m30.3 60.1v-8.4h2l3.6 4.6v-4.6h2.2v8.4h-1.9l-3.6-4.6v4.6z"/><path d="m40 51.7h2.3v8.4h-2.3z"/><path d="m44 60.1v-1.8h1.3c-.3-.2-.5-.4-.7-.7-.5-.6-.7-1.3-.7-2.1 0-1.1.4-2.1 1.3-2.9s2-1.2 3.4-1.2 2.5.4 3.4 1.2 1.3 1.7 1.3 2.9c0 .8-.2 1.5-.7 2.1-.2.3-.4.5-.7.7h1.3v1.8h-3.9v-1.9c1.2-.3 1.7-1.1 1.7-2.3 0-.7-.2-1.3-.7-1.7-.4-.5-1-.7-1.7-.7s-1.2.2-1.7.7c-.4.5-.7 1-.7 1.7 0 1.2.6 1.9 1.7 2.3v1.9z"/><path d="m54.7 60.1v-8.4h2l3.6 4.6v-4.6h2.2v8.4h-1.9l-3.6-4.6v4.6z"/><path d="m0 79.6v.4h79.2v-.4z"/></g></svg>